# xmcd CD database file generated by OrangeCD 6.0
#
# Track frame offsets:
#	150
#	18435
#	26835
#	38327
#	41681
#	56049
#	68685
#	77948
#	95106
#	107642
#	123094
#	134476
#	142816
#	155903
#	170101
#	182389
#	192876
#	204819
#	220231
#	234909
#	245831
#	255215
#	263933
#
# Disc length: 3722 seconds
#
# Revision: 0
# Processed by: cddbd v1.5.2PL0 Copyright (c) Steve Scherf et al.
# Submitted via: OrangeCD 6.0
#
DISCID=400e8817
DTITLE=Bob Dylan - The Dylan/Cash Sessions
DYEAR=1994
DGENRE=
TTITLE0=Bob Dylan with Johnny Cash - One Too Many Mornings
TTITLE1=Bob Dylan with Johnny Cash - Morning Dew
TTITLE2=Bob Dylan with Johnny Cash - I Still Miss Someone
TTITLE3=Bob Dylan with Johnny Cash - Careless Love
TTITLE4=Bob Dylan with Johnny Cash - Matchbox
TTITLE5=Bob Dylan with Johnny Cash - That's All Right
TTITLE6=Bob Dylan with Johnny Cash - Big River
TTITLE7=Bob Dylan with Johnny Cash - Girl From The North Country
TTITLE8=Bob Dylan with Johnny Cash - I Walk The Line
TTITLE9=Bob Dylan with Johnny Cash - You Are My Sunshine
TTITLE10=Bob Dylan with Johnny Cash - Ring Of Fire
TTITLE11=Bob Dylan with Johnny Cash - Guess Things Happen That Way
TTITLE12=Bob Dylan with Johnny Cash - Just A Closer Walk With Thee
TTITLE13=Bob Dylan with Johnny Cash - Blue Yodel
TTITLE14=Bob Dylan with Johnny Cash - Blue Yodel No. 5
TTITLE15=I Threw It All Away
TTITLE16=Living The Blues
TTITLE17=Bob Dylan with Johnny Cash - Girl From The North Country
TTITLE18=Nashville Skyline Rag
TTITLE19=I Threw It All Away
TTITLE20=Peggy Day
TTITLE21=Country Pie
TTITLE22=Tonight I'll Be Staying Here With You
EXTD=
EXTT0=
EXTT1=
EXTT2=
EXTT3=
EXTT4=
EXTT5=
EXTT6=
EXTT7=
EXTT8=
EXTT9=
EXTT10=
EXTT11=
EXTT12=
EXTT13=
EXTT14=
EXTT15=
EXTT16=
EXTT17=
EXTT18=
EXTT19=
EXTT20=
EXTT21=
EXTT22=
PLAYORDER=
